<svg id="eefa537d-dc9d-4b4b-9b9c-ac7ae2956cf7" data-name="Layer 4" xmlns="http://www.w3.org/2000/svg" viewBox="0 0 181.03 179.44"><path d="M1875,627.56v-49h49v16h-20S1918,627,1971,624c0,0,69-8.44,67-68.44l1-1h16s2,38-26,63c0,0-22,24-56,25,0,0-25,4-56-12,0,0-21-13-26-25v22Z" transform="translate(-1873.97 -463.56)" fill="#707070"/><path d="M2054,479v49h-49V512h20s-14-32.44-67-29.44c0,0-69,8.44-67,68.44l-1,1h-16s-2-38,26-63c0,0,22-24,56-25,0,0,25-4,56,12,0,0,21,13,26,25V479Z" transform="translate(-1873.97 -463.56)" fill="#707070"/><path d="M1987.69,523.58l8.31.35-.24,43.32s2.77,20.44-30.14,20.44l-14.55.34V541.26l9.35.35v36s11,.26,14.55-.35c4.41-.74,9.7-3.12,10.39-14.55l.35-39.14Z" transform="translate(-1873.97 -463.56)" fill="#707070"/><path d="M1940,581.45l-8.31-.35.24-43.31s-2.77-20.44,30.14-20.44l14.55-.35v46.77l-9.35-.35v-36s-11-.26-14.55.35c-4.41.74-9.7,3.12-10.4,14.55l-.34,39.15Z" transform="translate(-1873.97 -463.56)" fill="#707070"/></svg>